<svg xmlns="http://www.w3.org/2000/svg" xmlns:xlink="http://www.w3.org/1999/xlink" width="500" zoomAndPan="magnify" viewBox="0 0 375 374.999991" height="500" preserveAspectRatio="xMidYMid meet" version="1.0"><defs><clipPath id="049931ac27"><path d="M 273 229 L 357.980469 229 L 357.980469 369 L 273 369 Z M 273 229 " clip-rule="nonzero"/></clipPath><clipPath id="32a8482700"><path d="M 273 145 L 357.980469 145 L 357.980469 285 L 273 285 Z M 273 145 " clip-rule="nonzero"/></clipPath><clipPath id="57d2fc065e"><path d="M 16.730469 231 L 102 231 L 102 370 L 16.730469 370 Z M 16.730469 231 " clip-rule="nonzero"/></clipPath><clipPath id="f373e6c7ca"><path d="M 16.730469 146 L 102 146 L 102 286 L 16.730469 286 Z M 16.730469 146 " clip-rule="nonzero"/></clipPath><clipPath id="b02bd3ea9d"><path d="M 185 5.019531 L 271 5.019531 L 271 144 L 185 144 Z M 185 5.019531 " clip-rule="nonzero"/></clipPath><clipPath id="bfda3f8aa4"><path d="M 102 5.019531 L 187 5.019531 L 187 145 L 102 145 Z M 102 5.019531 " clip-rule="nonzero"/></clipPath></defs><path fill="#004aad" d="M 189.285156 284.191406 L 273.613281 368.519531 L 273.75 314.199219 L 189.835938 230.28125 Z M 189.285156 284.191406 " fill-opacity="1" fill-rule="nonzero"/><g clip-path="url(#049931ac27)"><path fill="#071e33" d="M 358.261719 283.871094 L 273.476562 368.609375 L 273.476562 314.152344 L 357.847656 229.777344 Z M 358.261719 283.871094 " fill-opacity="1" fill-rule="nonzero"/></g><g clip-path="url(#32a8482700)"><path fill="#004aad" d="M 273.199219 199.589844 L 357.984375 284.375 L 357.984375 229.914062 L 273.613281 145.542969 Z M 273.199219 199.589844 " fill-opacity="1" fill-rule="nonzero"/></g><path fill="#071e33" d="M 273.476562 199.910156 L 189.378906 284.511719 L 189.378906 230.054688 L 273.75 145.679688 Z M 273.476562 199.910156 " fill-opacity="1" fill-rule="nonzero"/><g clip-path="url(#57d2fc065e)"><path fill="#004aad" d="M 16.730469 285.476562 L 101.011719 369.804688 L 101.195312 315.480469 L 17.28125 231.566406 Z M 16.730469 285.476562 " fill-opacity="1" fill-rule="nonzero"/></g><path fill="#071e33" d="M 185.660156 285.15625 L 100.921875 369.941406 L 100.921875 315.480469 L 185.292969 231.109375 Z M 185.660156 285.15625 " fill-opacity="1" fill-rule="nonzero"/><path fill="#004aad" d="M 100.597656 200.917969 L 185.386719 285.660156 L 185.386719 231.199219 L 101.011719 146.828125 Z M 100.597656 200.917969 " fill-opacity="1" fill-rule="nonzero"/><g clip-path="url(#f373e6c7ca)"><path fill="#071e33" d="M 100.921875 201.195312 L 16.777344 285.796875 L 16.777344 231.339844 L 101.148438 146.964844 Z M 100.921875 201.195312 " fill-opacity="1" fill-rule="nonzero"/></g><path fill="#004aad" d="M 102.019531 143.707031 L 186.347656 228.035156 L 186.488281 173.710938 L 102.570312 89.796875 Z M 102.019531 143.707031 " fill-opacity="1" fill-rule="nonzero"/><path fill="#071e33" d="M 270.996094 143.386719 L 186.210938 228.171875 L 186.210938 173.710938 L 270.585938 89.339844 Z M 270.996094 143.386719 " fill-opacity="1" fill-rule="nonzero"/><g clip-path="url(#b02bd3ea9d)"><path fill="#004aad" d="M 185.9375 59.148438 L 270.722656 143.890625 L 270.722656 89.429688 L 186.347656 5.058594 Z M 185.9375 59.148438 " fill-opacity="1" fill-rule="nonzero"/></g><g clip-path="url(#bfda3f8aa4)"><path fill="#071e33" d="M 186.210938 59.425781 L 102.113281 144.027344 L 102.113281 89.570312 L 186.488281 5.195312 Z M 186.210938 59.425781 " fill-opacity="1" fill-rule="nonzero"/></g></svg>